<svg id="visual" viewBox="0 0 1920 1080" width="1920" height="1080" xmlns="http://www.w3.org/2000/svg" xmlns:xlink="http://www.w3.org/1999/xlink" version="1.1"><path d="M0 271L29.2 305.2C58.3 339.3 116.7 407.7 174.8 409.5C233 411.3 291 346.7 349.2 328.7C407.3 310.7 465.7 339.3 523.8 324.8C582 310.3 640 252.7 698.2 276.2C756.3 299.7 814.7 404.3 872.8 420.7C931 437 989 365 1047.2 343.3C1105.3 321.7 1163.7 350.3 1221.8 348.5C1280 346.7 1338 314.3 1396.2 285.5C1454.3 256.7 1512.7 231.3 1570.8 256.5C1629 281.7 1687 357.3 1745.2 371.8C1803.3 386.3 1861.7 339.7 1890.8 316.3L1920 293L1920 0L1890.8 0C1861.7 0 1803.3 0 1745.2 0C1687 0 1629 0 1570.8 0C1512.7 0 1454.3 0 1396.2 0C1338 0 1280 0 1221.8 0C1163.7 0 1105.3 0 1047.2 0C989 0 931 0 872.8 0C814.7 0 756.3 0 698.2 0C640 0 582 0 523.8 0C465.7 0 407.3 0 349.2 0C291 0 233 0 174.8 0C116.7 0 58.3 0 29.2 0L0 0Z" fill="#003664"></path><path d="M0 509L29.2 536C58.3 563 116.7 617 174.8 654.7C233 692.3 291 713.7 349.2 701C407.3 688.3 465.7 641.7 523.8 629.2C582 616.7 640 638.3 698.2 669C756.3 699.7 814.7 739.3 872.8 710.5C931 681.7 989 584.3 1047.2 550C1105.3 515.7 1163.7 544.3 1221.8 576.7C1280 609 1338 645 1396.2 668.5C1454.3 692 1512.7 703 1570.8 704.8C1629 706.7 1687 699.3 1745.2 670.5C1803.3 641.7 1861.7 591.3 1890.8 566.2L1920 541L1920 291L1890.8 314.3C1861.7 337.7 1803.3 384.3 1745.2 369.8C1687 355.3 1629 279.7 1570.8 254.5C1512.7 229.3 1454.3 254.7 1396.2 283.5C1338 312.3 1280 344.7 1221.8 346.5C1163.7 348.3 1105.3 319.7 1047.2 341.3C989 363 931 435 872.8 418.7C814.7 402.3 756.3 297.7 698.2 274.2C640 250.7 582 308.3 523.8 322.8C465.7 337.3 407.3 308.7 349.2 326.7C291 344.7 233 409.3 174.8 407.5C116.7 405.7 58.3 337.3 29.2 303.2L0 269Z" fill="#002442"></path><path d="M0 681L29.2 690C58.3 699 116.7 717 174.8 742.3C233 767.7 291 800.3 349.2 793.2C407.3 786 465.7 739 523.8 733.5C582 728 640 764 698.2 792.8C756.3 821.7 814.7 843.3 872.8 825.3C931 807.3 989 749.7 1047.2 729.8C1105.3 710 1163.7 728 1221.8 737C1280 746 1338 746 1396.2 755C1454.3 764 1512.7 782 1570.8 794.7C1629 807.3 1687 814.7 1745.2 793.2C1803.3 771.7 1861.7 721.3 1890.8 696.2L1920 671L1920 539L1890.8 564.2C1861.7 589.3 1803.3 639.7 1745.2 668.5C1687 697.3 1629 704.7 1570.8 702.8C1512.7 701 1454.3 690 1396.2 666.5C1338 643 1280 607 1221.8 574.7C1163.7 542.3 1105.3 513.7 1047.2 548C989 582.3 931 679.7 872.8 708.5C814.7 737.3 756.3 697.7 698.2 667C640 636.3 582 614.7 523.8 627.2C465.7 639.7 407.3 686.3 349.2 699C291 711.7 233 690.3 174.8 652.7C116.7 615 58.3 561 29.2 534L0 507Z" fill="#001122"></path><path d="M0 941L29.2 933.7C58.3 926.3 116.7 911.7 174.8 922.3C233 933 291 969 349.2 974.5C407.3 980 465.7 955 523.8 947.8C582 940.7 640 951.3 698.2 963.8C756.3 976.3 814.7 990.7 872.8 990.7C931 990.7 989 976.3 1047.2 978.2C1105.3 980 1163.7 998 1221.8 987.2C1280 976.3 1338 936.7 1396.2 933.2C1454.3 929.7 1512.7 962.3 1570.8 980.3C1629 998.3 1687 1001.7 1745.2 987.2C1803.3 972.7 1861.7 940.3 1890.8 924.2L1920 908L1920 669L1890.8 694.2C1861.7 719.3 1803.3 769.7 1745.2 791.2C1687 812.7 1629 805.3 1570.8 792.7C1512.7 780 1454.3 762 1396.2 753C1338 744 1280 744 1221.8 735C1163.7 726 1105.3 708 1047.2 727.8C989 747.7 931 805.3 872.8 823.3C814.7 841.3 756.3 819.7 698.2 790.8C640 762 582 726 523.8 731.5C465.7 737 407.3 784 349.2 791.2C291 798.3 233 765.7 174.8 740.3C116.7 715 58.3 697 29.2 688L0 679Z" fill="#000f1e"></path><path d="M0 1081L29.2 1081C58.3 1081 116.7 1081 174.8 1081C233 1081 291 1081 349.2 1081C407.3 1081 465.7 1081 523.8 1081C582 1081 640 1081 698.2 1081C756.3 1081 814.7 1081 872.8 1081C931 1081 989 1081 1047.2 1081C1105.3 1081 1163.7 1081 1221.8 1081C1280 1081 1338 1081 1396.2 1081C1454.3 1081 1512.7 1081 1570.8 1081C1629 1081 1687 1081 1745.2 1081C1803.3 1081 1861.7 1081 1890.8 1081L1920 1081L1920 906L1890.8 922.2C1861.7 938.3 1803.3 970.7 1745.2 985.2C1687 999.7 1629 996.3 1570.8 978.3C1512.7 960.3 1454.3 927.7 1396.2 931.2C1338 934.7 1280 974.3 1221.8 985.2C1163.7 996 1105.3 978 1047.2 976.2C989 974.3 931 988.7 872.8 988.7C814.7 988.7 756.3 974.3 698.2 961.8C640 949.3 582 938.7 523.8 945.8C465.7 953 407.3 978 349.2 972.5C291 967 233 931 174.8 920.3C116.7 909.7 58.3 924.3 29.2 931.7L0 939Z" fill="#000d1b"></path></svg>