<svg id="visual" viewBox="0 0 1920 1080" width="1920" height="1080" xmlns="http://www.w3.org/2000/svg" xmlns:xlink="http://www.w3.org/1999/xlink" version="1.1"><rect x="0" y="0" width="1920" height="1080" fill="#001220"></rect><defs><linearGradient id="grad1_0" x1="43.8%" y1="0%" x2="100%" y2="100%"><stop offset="14.444444444444446%" stop-color="#6600ff" stop-opacity="1"></stop><stop offset="85.55555555555554%" stop-color="#6600ff" stop-opacity="1"></stop></linearGradient></defs><defs><linearGradient id="grad1_1" x1="43.8%" y1="0%" x2="100%" y2="100%"><stop offset="14.444444444444446%" stop-color="#6600ff" stop-opacity="1"></stop><stop offset="85.55555555555554%" stop-color="#002fe3" stop-opacity="1"></stop></linearGradient></defs><defs><linearGradient id="grad1_2" x1="43.8%" y1="0%" x2="100%" y2="100%"><stop offset="14.444444444444446%" stop-color="#0035c1" stop-opacity="1"></stop><stop offset="85.55555555555554%" stop-color="#002fe3" stop-opacity="1"></stop></linearGradient></defs><defs><linearGradient id="grad1_3" x1="43.8%" y1="0%" x2="100%" y2="100%"><stop offset="14.444444444444446%" stop-color="#0035c1" stop-opacity="1"></stop><stop offset="85.55555555555554%" stop-color="#003299" stop-opacity="1"></stop></linearGradient></defs><defs><linearGradient id="grad1_4" x1="43.8%" y1="0%" x2="100%" y2="100%"><stop offset="14.444444444444446%" stop-color="#002a70" stop-opacity="1"></stop><stop offset="85.55555555555554%" stop-color="#003299" stop-opacity="1"></stop></linearGradient></defs><defs><linearGradient id="grad1_5" x1="43.8%" y1="0%" x2="100%" y2="100%"><stop offset="14.444444444444446%" stop-color="#002a70" stop-opacity="1"></stop><stop offset="85.55555555555554%" stop-color="#001f47" stop-opacity="1"></stop></linearGradient></defs><defs><linearGradient id="grad1_6" x1="43.8%" y1="0%" x2="100%" y2="100%"><stop offset="14.444444444444446%" stop-color="#001220" stop-opacity="1"></stop><stop offset="85.55555555555554%" stop-color="#001f47" stop-opacity="1"></stop></linearGradient></defs><defs><linearGradient id="grad2_0" x1="0%" y1="0%" x2="56.3%" y2="100%"><stop offset="14.444444444444446%" stop-color="#6600ff" stop-opacity="1"></stop><stop offset="85.55555555555554%" stop-color="#6600ff" stop-opacity="1"></stop></linearGradient></defs><defs><linearGradient id="grad2_1" x1="0%" y1="0%" x2="56.3%" y2="100%"><stop offset="14.444444444444446%" stop-color="#002fe3" stop-opacity="1"></stop><stop offset="85.55555555555554%" stop-color="#6600ff" stop-opacity="1"></stop></linearGradient></defs><defs><linearGradient id="grad2_2" x1="0%" y1="0%" x2="56.3%" y2="100%"><stop offset="14.444444444444446%" stop-color="#002fe3" stop-opacity="1"></stop><stop offset="85.55555555555554%" stop-color="#0035c1" stop-opacity="1"></stop></linearGradient></defs><defs><linearGradient id="grad2_3" x1="0%" y1="0%" x2="56.3%" y2="100%"><stop offset="14.444444444444446%" stop-color="#003299" stop-opacity="1"></stop><stop offset="85.55555555555554%" stop-color="#0035c1" stop-opacity="1"></stop></linearGradient></defs><defs><linearGradient id="grad2_4" x1="0%" y1="0%" x2="56.3%" y2="100%"><stop offset="14.444444444444446%" stop-color="#003299" stop-opacity="1"></stop><stop offset="85.55555555555554%" stop-color="#002a70" stop-opacity="1"></stop></linearGradient></defs><defs><linearGradient id="grad2_5" x1="0%" y1="0%" x2="56.3%" y2="100%"><stop offset="14.444444444444446%" stop-color="#001f47" stop-opacity="1"></stop><stop offset="85.55555555555554%" stop-color="#002a70" stop-opacity="1"></stop></linearGradient></defs><defs><linearGradient id="grad2_6" x1="0%" y1="0%" x2="56.3%" y2="100%"><stop offset="14.444444444444446%" stop-color="#001f47" stop-opacity="1"></stop><stop offset="85.55555555555554%" stop-color="#001220" stop-opacity="1"></stop></linearGradient></defs><g transform="translate(1920, 0)"><path d="M0 864C-115.6 854.3 -231.3 844.5 -330.6 798.2C-430 751.9 -513.1 669.1 -584.1 584.1C-655 499.1 -713.9 411.9 -758.5 314.2C-803.1 216.5 -833.6 108.2 -864 0L0 0Z" fill="#001933"></path><path d="M0 740.6C-99.1 732.2 -198.2 723.9 -283.4 684.2C-368.6 644.5 -439.8 573.5 -500.6 500.6C-561.5 427.8 -611.9 353 -650.1 269.3C-688.4 185.6 -714.5 92.8 -740.6 0L0 0Z" fill="#00255b"></path><path d="M0 617.1C-82.6 610.2 -165.2 603.2 -236.2 570.2C-307.1 537.1 -366.5 477.9 -417.2 417.2C-467.9 356.5 -509.9 294.2 -541.8 224.4C-573.7 154.6 -595.4 77.3 -617.1 0L0 0Z" fill="#002e85"></path><path d="M0 493.7C-66.1 488.2 -132.2 482.6 -188.9 456.1C-245.7 429.7 -293.2 382.3 -333.8 333.8C-374.3 285.2 -407.9 235.4 -433.4 179.5C-458.9 123.7 -476.3 61.9 -493.7 0L0 0Z" fill="#0035ae"></path><path d="M0 370.3C-49.6 366.1 -99.1 361.9 -141.7 342.1C-184.3 322.3 -219.9 286.7 -250.3 250.3C-280.7 213.9 -305.9 176.5 -325.1 134.6C-344.2 92.8 -357.2 46.4 -370.3 0L0 0Z" fill="#0034d3"></path><path d="M0 246.9C-33 244.1 -66.1 241.3 -94.5 228.1C-122.9 214.8 -146.6 191.2 -166.9 166.9C-187.2 142.6 -204 117.7 -216.7 89.8C-229.5 61.9 -238.2 30.9 -246.9 0L0 0Z" fill="#3b24f2"></path><path d="M0 123.4C-16.5 122 -33 120.6 -47.2 114C-61.4 107.4 -73.3 95.6 -83.4 83.4C-93.6 71.3 -102 58.8 -108.4 44.9C-114.7 30.9 -119.1 15.5 -123.4 0L0 0Z" fill="#6600ff"></path></g><g transform="translate(0, 1080)"><path d="M0 -864C110.6 -847.1 221.2 -830.1 328 -791.8C434.7 -753.4 537.7 -693.7 610.9 -610.9C684.2 -528.2 727.7 -422.5 765 -316.9C802.2 -211.2 833.1 -105.6 864 0L0 0Z" fill="#001933"></path><path d="M0 -740.6C94.8 -726 189.6 -711.5 281.1 -678.7C372.6 -645.8 460.9 -594.6 523.7 -523.7C586.5 -452.8 623.8 -362.2 655.7 -271.6C687.6 -181 714.1 -90.5 740.6 0L0 0Z" fill="#00255b"></path><path d="M0 -617.1C79 -605 158 -592.9 234.3 -565.5C310.5 -538.2 384.1 -495.5 436.4 -436.4C488.7 -377.3 519.8 -301.8 546.4 -226.3C573 -150.9 595.1 -75.4 617.1 0L0 0Z" fill="#002e85"></path><path d="M0 -493.7C63.2 -484 126.4 -474.3 187.4 -452.4C248.4 -430.5 307.2 -396.4 349.1 -349.1C391 -301.8 415.9 -241.4 437.1 -181.1C458.4 -120.7 476.1 -60.3 493.7 0L0 0Z" fill="#0035ae"></path><path d="M0 -370.3C47.4 -363 94.8 -355.8 140.6 -339.3C186.3 -322.9 230.4 -297.3 261.8 -261.8C293.2 -226.4 311.9 -181.1 327.8 -135.8C343.8 -90.5 357 -45.3 370.3 0L0 0Z" fill="#0034d3"></path><path d="M0 -246.9C31.6 -242 63.2 -237.2 93.7 -226.2C124.2 -215.3 153.6 -198.2 174.6 -174.6C195.5 -150.9 207.9 -120.7 218.6 -90.5C229.2 -60.3 238 -30.2 246.9 0L0 0Z" fill="#3b24f2"></path><path d="M0 -123.4C15.8 -121 31.6 -118.6 46.9 -113.1C62.1 -107.6 76.8 -99.1 87.3 -87.3C97.7 -75.5 104 -60.4 109.3 -45.3C114.6 -30.2 119 -15.1 123.4 0L0 0Z" fill="#6600ff"></path></g></svg>