<?xml version="1.0" encoding="utf-8"?>
<!-- Svg Vector Icons : http://www.onlinewebfonts.com/icon -->
<!DOCTYPE svg PUBLIC "-//W3C//DTD SVG 1.1//EN" "http://www.w3.org/Graphics/SVG/1.1/DTD/svg11.dtd">
<svg version="1.1" xmlns="http://www.w3.org/2000/svg" xmlns:xlink="http://www.w3.org/1999/xlink" x="0px" y="0px" viewBox="0 0 256 256" enable-background="new 0 0 0 0" xml:space="preserve">
<metadata> Svg Vector Icons : http://www.onlinewebfonts.com/icon </metadata>
<g><g><path fill="#000000" d="M22.5,174.4V81.6c0-9,4.8-17.3,12.6-21.8l80.4-46.4c7.8-4.5,17.4-4.5,25.2,0L221,59.8c7.8,4.5,12.6,12.8,12.6,21.8v92.8c0,9-4.8,17.3-12.6,21.8l-80.4,46.4c-7.8,4.5-17.4,4.5-25.2,0L35,196.2C27.3,191.7,22.5,183.4,22.5,174.4L22.5,174.4L22.5,174.4z M226.2,83c0-7.2-3.9-13.9-10.1-17.6l-78-45c-6.3-3.6-14-3.6-20.3,0l-78,45C33.6,69.1,29.8,75.8,29.8,83v90c0,7.2,3.9,13.9,10.1,17.6l78,45c6.3,3.6,14,3.6,20.3,0l77.9-45c6.3-3.6,10.1-10.3,10.1-17.6L226.2,83L226.2,83L226.2,83z"/></g></g>
</svg>