<svg id="visual" viewBox="0 0 1920 1080" width="1920" height="1080" xmlns="http://www.w3.org/2000/svg" xmlns:xlink="http://www.w3.org/1999/xlink" version="1.1"><rect x="0" y="0" width="1920" height="1080" fill="#001122"></rect><defs><linearGradient id="grad1_0" x1="43.8%" y1="0%" x2="100%" y2="100%"><stop offset="14.444444444444446%" stop-color="#c13e74" stop-opacity="1"></stop><stop offset="85.55555555555554%" stop-color="#c13e74" stop-opacity="1"></stop></linearGradient></defs><defs><linearGradient id="grad1_1" x1="43.8%" y1="0%" x2="100%" y2="100%"><stop offset="14.444444444444446%" stop-color="#c13e74" stop-opacity="1"></stop><stop offset="85.55555555555554%" stop-color="#a13a76" stop-opacity="1"></stop></linearGradient></defs><defs><linearGradient id="grad1_2" x1="43.8%" y1="0%" x2="100%" y2="100%"><stop offset="14.444444444444446%" stop-color="#7f3773" stop-opacity="1"></stop><stop offset="85.55555555555554%" stop-color="#a13a76" stop-opacity="1"></stop></linearGradient></defs><defs><linearGradient id="grad1_3" x1="43.8%" y1="0%" x2="100%" y2="100%"><stop offset="14.444444444444446%" stop-color="#7f3773" stop-opacity="1"></stop><stop offset="85.55555555555554%" stop-color="#5e336a" stop-opacity="1"></stop></linearGradient></defs><defs><linearGradient id="grad1_4" x1="43.8%" y1="0%" x2="100%" y2="100%"><stop offset="14.444444444444446%" stop-color="#3f2d5c" stop-opacity="1"></stop><stop offset="85.55555555555554%" stop-color="#5e336a" stop-opacity="1"></stop></linearGradient></defs><defs><linearGradient id="grad1_5" x1="43.8%" y1="0%" x2="100%" y2="100%"><stop offset="14.444444444444446%" stop-color="#3f2d5c" stop-opacity="1"></stop><stop offset="85.55555555555554%" stop-color="#24264b" stop-opacity="1"></stop></linearGradient></defs><defs><linearGradient id="grad1_6" x1="43.8%" y1="0%" x2="100%" y2="100%"><stop offset="14.444444444444446%" stop-color="#0e1d37" stop-opacity="1"></stop><stop offset="85.55555555555554%" stop-color="#24264b" stop-opacity="1"></stop></linearGradient></defs><defs><linearGradient id="grad1_7" x1="43.8%" y1="0%" x2="100%" y2="100%"><stop offset="14.444444444444446%" stop-color="#0e1d37" stop-opacity="1"></stop><stop offset="85.55555555555554%" stop-color="#001122" stop-opacity="1"></stop></linearGradient></defs><defs><linearGradient id="grad2_0" x1="0%" y1="0%" x2="56.3%" y2="100%"><stop offset="14.444444444444446%" stop-color="#c13e74" stop-opacity="1"></stop><stop offset="85.55555555555554%" stop-color="#c13e74" stop-opacity="1"></stop></linearGradient></defs><defs><linearGradient id="grad2_1" x1="0%" y1="0%" x2="56.3%" y2="100%"><stop offset="14.444444444444446%" stop-color="#a13a76" stop-opacity="1"></stop><stop offset="85.55555555555554%" stop-color="#c13e74" stop-opacity="1"></stop></linearGradient></defs><defs><linearGradient id="grad2_2" x1="0%" y1="0%" x2="56.3%" y2="100%"><stop offset="14.444444444444446%" stop-color="#a13a76" stop-opacity="1"></stop><stop offset="85.55555555555554%" stop-color="#7f3773" stop-opacity="1"></stop></linearGradient></defs><defs><linearGradient id="grad2_3" x1="0%" y1="0%" x2="56.3%" y2="100%"><stop offset="14.444444444444446%" stop-color="#5e336a" stop-opacity="1"></stop><stop offset="85.55555555555554%" stop-color="#7f3773" stop-opacity="1"></stop></linearGradient></defs><defs><linearGradient id="grad2_4" x1="0%" y1="0%" x2="56.3%" y2="100%"><stop offset="14.444444444444446%" stop-color="#5e336a" stop-opacity="1"></stop><stop offset="85.55555555555554%" stop-color="#3f2d5c" stop-opacity="1"></stop></linearGradient></defs><defs><linearGradient id="grad2_5" x1="0%" y1="0%" x2="56.3%" y2="100%"><stop offset="14.444444444444446%" stop-color="#24264b" stop-opacity="1"></stop><stop offset="85.55555555555554%" stop-color="#3f2d5c" stop-opacity="1"></stop></linearGradient></defs><defs><linearGradient id="grad2_6" x1="0%" y1="0%" x2="56.3%" y2="100%"><stop offset="14.444444444444446%" stop-color="#24264b" stop-opacity="1"></stop><stop offset="85.55555555555554%" stop-color="#0e1d37" stop-opacity="1"></stop></linearGradient></defs><defs><linearGradient id="grad2_7" x1="0%" y1="0%" x2="56.3%" y2="100%"><stop offset="14.444444444444446%" stop-color="#001122" stop-opacity="1"></stop><stop offset="85.55555555555554%" stop-color="#0e1d37" stop-opacity="1"></stop></linearGradient></defs><g transform="translate(1920, 0)"><path d="M0 864C-160.3 846.7 -320.7 829.5 -432 748.2C-543.3 667 -605.6 521.9 -669.4 386.5C-733.3 251.1 -798.6 125.6 -864 0L0 0Z" fill="#06172c"></path><path d="M0 756C-140.3 740.9 -280.6 725.8 -378 654.7C-475.4 583.7 -529.9 456.6 -585.8 338.2C-641.6 219.7 -698.8 109.9 -756 0L0 0Z" fill="#182141"></path><path d="M0 648C-120.3 635 -240.5 622.1 -324 561.2C-407.5 500.3 -454.2 391.4 -502.1 289.9C-550 188.4 -599 94.2 -648 0L0 0Z" fill="#312a54"></path><path d="M0 540C-100.2 529.2 -200.4 518.4 -270 467.7C-339.6 416.9 -378.5 326.2 -418.4 241.6C-458.3 157 -499.1 78.5 -540 0L0 0Z" fill="#4e3064"></path><path d="M0 432C-80.2 423.4 -160.3 414.7 -216 374.1C-271.7 333.5 -302.8 260.9 -334.7 193.3C-366.6 125.6 -399.3 62.8 -432 0L0 0Z" fill="#6e356f"></path><path d="M0 324C-60.1 317.5 -120.3 311 -162 280.6C-203.7 250.1 -227.1 195.7 -251 144.9C-275 94.2 -299.5 47.1 -324 0L0 0Z" fill="#903875"></path><path d="M0 216C-40.1 211.7 -80.2 207.4 -108 187.1C-135.8 166.8 -151.4 130.5 -167.4 96.6C-183.3 62.8 -199.7 31.4 -216 0L0 0Z" fill="#b13c76"></path><path d="M0 108C-20 105.8 -40.1 103.7 -54 93.5C-67.9 83.4 -75.7 65.2 -83.7 48.3C-91.7 31.4 -99.8 15.7 -108 0L0 0Z" fill="#c13e74"></path></g><g transform="translate(0, 1080)"><path d="M0 -864C163.5 -848.5 326.9 -833.1 432 -748.2C537.1 -663.4 583.8 -509.3 646.1 -373C708.3 -236.7 786.2 -118.4 864 0L0 0Z" fill="#06172c"></path><path d="M0 -756C143 -742.5 286.1 -728.9 378 -654.7C469.9 -580.5 510.8 -445.6 565.3 -326.4C619.8 -207.1 687.9 -103.6 756 0L0 0Z" fill="#182141"></path><path d="M0 -648C122.6 -636.4 245.2 -624.8 324 -561.2C402.8 -497.6 437.8 -381.9 484.5 -279.8C531.2 -177.6 589.6 -88.8 648 0L0 0Z" fill="#312a54"></path><path d="M0 -540C102.2 -530.3 204.3 -520.7 270 -467.7C335.7 -414.6 364.9 -318.3 403.8 -233.1C442.7 -148 491.4 -74 540 0L0 0Z" fill="#4e3064"></path><path d="M0 -432C81.7 -424.3 163.5 -416.5 216 -374.1C268.5 -331.7 291.9 -254.6 323 -186.5C354.2 -118.4 393.1 -59.2 432 0L0 0Z" fill="#6e356f"></path><path d="M0 -324C61.3 -318.2 122.6 -312.4 162 -280.6C201.4 -248.8 218.9 -191 242.3 -139.9C265.6 -88.8 294.8 -44.4 324 0L0 0Z" fill="#903875"></path><path d="M0 -216C40.9 -212.1 81.7 -208.3 108 -187.1C134.3 -165.9 145.9 -127.3 161.5 -93.3C177.1 -59.2 196.5 -29.6 216 0L0 0Z" fill="#b13c76"></path><path d="M0 -108C20.4 -106.1 40.9 -104.1 54 -93.5C67.1 -82.9 73 -63.7 80.8 -46.6C88.5 -29.6 98.3 -14.8 108 0L0 0Z" fill="#c13e74"></path></g></svg>